<?xml version="1.0" standalone="no"?><!DOCTYPE svg PUBLIC "-//W3C//DTD SVG 1.1//EN" "http://www.w3.org/Graphics/SVG/1.1/DTD/svg11.dtd"><svg t="1524181217817" class="icon" style="" viewBox="0 0 1024 1024" version="1.1" xmlns="http://www.w3.org/2000/svg" p-id="2140" xmlns:xlink="http://www.w3.org/1999/xlink" width="32" height="32"><defs><style type="text/css"></style></defs><path d="M665.6 307.2h-153.6V153.6H0v768h435.2l230.4-230.4z" fill="#62D1A9" p-id="2141"></path><path d="M665.6 691.2l-230.4 230.4h230.4z" fill="#59BA98" p-id="2142"></path><path d="M512 153.6v153.6h153.6z" fill="#C7FFEF" p-id="2143"></path><path d="M665.6 460.8v-153.6h-153.6z" fill="#59BA98" p-id="2144"></path><path d="M128 354.1504h409.6v51.2H128zM128 512h409.6v51.2H128zM128 669.8496h409.6v51.2H128z" fill="#FFFEFE" p-id="2145"></path><path d="M139.1872 153.6v307.2l76.8-76.8 76.8 76.8V153.6z" fill="#B63434" p-id="2146"></path><path d="M215.9872 204.8m-102.4 0a102.4 102.4 0 1 0 204.8 0 102.4 102.4 0 1 0-204.8 0Z" fill="#D3711A" p-id="2147"></path><path d="M215.9872 204.8m-51.2 0a51.2 51.2 0 1 0 102.4 0 51.2 51.2 0 1 0-102.4 0Z" fill="#FCD036" p-id="2148"></path><path d="M1021.3376 621.7472a10.1888 10.1888 0 0 0-6.9376-4.1472l-60.3648-9.216c5.632 18.0992 8.6528 37.3248 8.6528 57.2672l-0.0512 0.6656a193.0752 193.0752 0 0 0-8.6016-56.6016l-0.3072-0.0512a200.3712 200.3712 0 0 0-13.568-32.512l0.1792-0.256c3.968-5.504 9.8816-13.184 17.7152-23.0912 7.9616-10.0864 13.568-17.408 16.896-22.0416a12.8 12.8 0 0 0 2.6624-7.6288 10.624 10.624 0 0 0-2.3296-7.296c-7.9616-11.264-26.1632-30.0544-54.7072-56.3456a12.8256 12.8256 0 0 0-8.2688-3.3024 10.7264 10.7264 0 0 0-7.9616 2.9696l-46.592 35.0976-0.4864 0.384a199.68 199.68 0 0 0-29.824-12.2624l-0.128-0.7424-9.1648-60.2624c-0.2304-2.8672-1.4848-5.248-3.7888-7.1168s-5.0176-2.816-8.1152-2.816h-73.6c-6.4 0-10.368 3.0976-11.9296 9.2928-2.8416 10.9568-6.016 31.3344-9.5488 61.0304l-0.0768 0.6144c-10.368 3.328-20.4288 7.5264-30.1568 12.5952l-0.512-0.384-45.2608-35.0976a14.1568 14.1568 0 0 0-8.6272-3.3024c-4.8384 0-15.3088 7.9104-31.3344 23.7056s-26.9056 27.6736-32.64 35.6352a13.9008 13.9008 0 0 0-2.9696 7.6288c0 2.6624 1.1008 5.2992 3.3024 7.9616a754.2528 754.2528 0 0 1 35.3024 45.5168l0.1792 0.2304a163.6096 163.6096 0 0 0-12.928 30.4896l-0.1536 0.0256-61.4912 9.2416a9.856 9.856 0 0 0-6.2976 4.3264 12.7488 12.7488 0 0 0-2.6624 7.6288v73.5744c0 2.8672 0.8704 5.4784 2.6624 7.808a10.2912 10.2912 0 0 0 6.9376 4.1472l60.288 8.9088 0.384 0.0512c3.072 10.8288 7.6288 21.76 13.568 32.7936l-0.1792 0.256c-3.968 5.504-9.856 13.184-17.7152 23.1168-7.9616 10.0608-13.568 17.408-16.896 22.0416a12.8 12.8 0 0 0-0.3328 15.2576c8.6272 11.9296 26.8544 30.4896 54.7072 55.68a11.2896 11.2896 0 0 0 8.2688 3.6608c3.328 0 6.0672-0.9728 8.2944-2.9696l46.2592-35.0976 0.4864-0.384c9.0624 4.6592 18.9952 8.7296 29.8496 12.2624l0.1024 0.7424 9.1648 60.2624a9.984 9.984 0 0 0 3.7888 7.1168 12.544 12.544 0 0 0 8.1152 2.7904h73.6c6.4 0 10.368-3.072 11.9296-9.2672 2.8416-10.9568 6.016-31.36 9.5488-61.056l0.0768-0.5888c10.368-3.328 20.4288-7.5264 30.1568-12.5952l0.512 0.384c0.3328-0.1792 0.64-0.4352 0.9728-0.5888l44.2624 34.6624a16.3072 16.3072 0 0 0 8.6272 2.9696c4.8384 0 15.2576-7.8592 31.1552-23.552 15.9232-15.6672 26.8544-27.6224 32.8192-35.7888 1.9968-2.2016 2.9696-4.7616 2.9696-7.6288s-1.1008-5.632-3.3024-8.2688a819.456 819.456 0 0 1-35.072-45.2352 211.712 211.712 0 0 0 12.5184-29.3376l0.1536-0.0256c0.1536-0.4864 0.1792-0.9472 0.3328-1.4336l60.8256-9.1904a10.112 10.112 0 0 0 6.6304-4.3008 12.8 12.8 0 0 0 2.688-7.6544V629.504a12.3904 12.3904 0 0 0-2.6624-7.7568z m-251.9296 192.4608a147.2 147.2 0 1 1 0-294.4 147.2 147.2 0 1 1 0 294.4z" fill="#F5BB43" p-id="2149"></path><path d="M622.208 667.008a147.2 147.2 0 1 0 294.4 0c0-25.3952-6.4256-49.3056-17.7664-70.1696a147.8912 147.8912 0 0 0-85.6576-70.4256 147.2 147.2 0 0 0-76.672-2.7904 147.1744 147.1744 0 0 0-114.304 143.3856z m87.1936-60.0064c16.5632-16.5632 36.5824-24.8576 60.0064-24.8576s43.4176 8.2944 60.0064 24.8576 24.8576 36.5824 24.8576 60.0064-8.2944 43.4176-24.8576 60.0064-36.5824 24.8576-60.0064 24.8576-43.4176-8.2944-60.0064-24.8576-24.8576-36.5824-24.8576-60.0064 8.2944-43.4176 24.8576-60.0064z" fill="#FFDEA9" p-id="2150"></path></svg>