<?xml version="1.0" standalone="no"?><!DOCTYPE svg PUBLIC "-//W3C//DTD SVG 1.1//EN" "http://www.w3.org/Graphics/SVG/1.1/DTD/svg11.dtd"><svg t="1524181782833" class="icon" style="" viewBox="0 0 1024 1024" version="1.1" xmlns="http://www.w3.org/2000/svg" p-id="5393" xmlns:xlink="http://www.w3.org/1999/xlink" width="32" height="32"><defs><style type="text/css"></style></defs><path d="M597.333333 768v256H170.666667a56.888889 56.888889 0 0 1-56.888889-56.888889V56.888889a56.888889 56.888889 0 0 1 56.888889-56.888889h682.666666a56.888889 56.888889 0 0 1 56.888889 56.888889v654.222222h-256a56.888889 56.888889 0 0 0-56.888889 56.888889z m-17.066666-545.706667a173.027556 173.027556 0 1 0 0 244.423111 173.511111 173.511111 0 0 0 0-244.423111z m122.311111 325.888l-61.212445-61.098666a28.842667 28.842667 0 0 0-40.846222 40.732444l61.240889 61.098667a28.842667 28.842667 0 1 0 40.817778-40.732445z m-163.271111-122.311111a115.342222 115.342222 0 1 1 0-162.958222 115.683556 115.683556 0 0 1 0.085333 163.072zM682.666667 768h199.111111a28.444444 28.444444 0 0 1 28.444444 28.444444l-227.555555 227.555556a28.444444 28.444444 0 0 1-28.444445-28.444444v-199.111112a28.444444 28.444444 0 0 1 28.444445-28.444444z" fill="#06c1ae" p-id="5394" data-spm-anchor-id="a313x.7781069.0.i51" class="selected"></path></svg>