<?xml version="1.0" standalone="no"?><!DOCTYPE svg PUBLIC "-//W3C//DTD SVG 1.1//EN" "http://www.w3.org/Graphics/SVG/1.1/DTD/svg11.dtd"><svg t="1524181382916" class="icon" style="" viewBox="0 0 1024 1024" version="1.1" xmlns="http://www.w3.org/2000/svg" p-id="3601" xmlns:xlink="http://www.w3.org/1999/xlink" width="32" height="32"><defs><style type="text/css"></style></defs><path d="M998.4 768h-128v76.8h128a25.6 25.6 0 0 1 0 51.2h-128v102.4a25.6 25.6 0 0 1-51.2 0v-102.4h-128a25.6 25.6 0 0 1 0-51.2h128v-76.8h-128a25.6 25.6 0 0 1 0-51.2h71.2704l-54.912-95.104a25.6 25.6 0 0 1 44.3392-25.6L821.5808 716.8h46.7712l69.6064-120.576a25.6 25.6 0 0 1 44.3392 25.6L927.4624 716.8H998.4a25.6 25.6 0 0 1 0 51.2zM512 486.4a25.6 25.6 0 0 1 0 51.2h-51.2a25.6 25.6 0 0 1 0-51.2h51.2z m-153.6 0a25.6 25.6 0 0 1 0 51.2h-51.2a25.6 25.6 0 0 1 0-51.2h51.2z m-204.8 0h51.2a25.6 25.6 0 0 1 0 51.2H153.6a25.6 25.6 0 0 1 0-51.2zM768 230.4H153.6a25.6 25.6 0 0 1 0-51.2h614.4a25.6 25.6 0 0 1 0 51.2z m0 153.6H153.6a25.6 25.6 0 0 1 0-51.2h614.4a25.6 25.6 0 0 1 0 51.2z m128 128a25.6 25.6 0 0 1-25.6-25.6V102.4a51.2 51.2 0 0 0-51.2-51.2H102.4a51.2 51.2 0 0 0-51.2 51.2v819.2a51.2 51.2 0 0 0 51.2 51.2h460.8a25.6 25.6 0 0 1 0 51.2H51.2a51.2 51.2 0 0 1-51.2-51.2V51.2a51.2 51.2 0 0 1 51.2-51.2h819.2a51.2 51.2 0 0 1 51.2 51.2v435.2a25.6 25.6 0 0 1-25.6 25.6z" p-id="3602" fill="#06c1ae"></path></svg>