<?xml version="1.0" standalone="no"?><!DOCTYPE svg PUBLIC "-//W3C//DTD SVG 1.1//EN" "http://www.w3.org/Graphics/SVG/1.1/DTD/svg11.dtd"><svg t="1525859053071" class="icon" style="" viewBox="0 0 1024 1024" version="1.1" xmlns="http://www.w3.org/2000/svg" p-id="1524" xmlns:xlink="http://www.w3.org/1999/xlink" width="32" height="32"><defs><style type="text/css"></style></defs><path d="M906.953 826.573H117.047c-9.285 0-16.85-7.558-16.85-16.845V294.351c0-9.315 7.564-16.847 16.85-16.847h789.907c9.283 0 16.85 7.532 16.85 16.847v515.375c-0.001 9.29-7.567 16.847-16.851 16.847" fill="#73B3DA" p-id="1525"></path><path d="M341.447 257.744h345.255v95.67H341.447z" fill="#F5A915" p-id="1526"></path><path d="M561.906 318.052H462.08V214.279c0-9.313 7.546-16.852 16.85-16.852h66.121c9.318 0 16.85 7.539 16.85 16.852l0.005 103.773z" fill="#F5A915" p-id="1527"></path><path d="M168.833 406.454h259.975v334.848H168.833zM701.649 439.211H489.78c-6.105 0-11.059-2.485-11.059-5.53v-21.698c0-3.061 4.958-5.53 11.059-5.53h211.869c6.113 0 11.045 2.471 11.045 5.53v21.698c0.004 3.046-4.932 5.53-11.045 5.53M830.007 709.837H483.992c-6.106 0-11.06-2.501-11.06-5.58v-21.889c0-3.082 4.958-5.576 11.06-5.576h346.015c6.107 0 11.061 2.497 11.061 5.576v21.889c0 3.081-4.955 5.58-11.061 5.58M830.007 639.699H483.992c-6.106 0-11.06-2.502-11.06-5.58V612.23c0-3.082 4.958-5.576 11.06-5.576h346.015c6.107 0 11.061 2.496 11.061 5.576v21.889c0 3.08-4.955 5.58-11.061 5.58M830.007 569.561H483.992c-6.106 0-11.06-2.501-11.06-5.58v-21.889c0-3.082 4.958-5.576 11.06-5.576h346.015c6.107 0 11.061 2.497 11.061 5.576v21.889c0 3.081-4.955 5.58-11.061 5.58" fill="#FFFFFF" p-id="1528"></path><path d="M381.042 647.51c-7.775-7.775-28.043-12.611-40.508-14.921a158.527 158.527 0 0 1 1.817 1.798l7.702 23.755-8.397 8.038 6.587 14.337-10.392 59.094h22.475l1.009-30.773 1.77 30.773h29.278c-0.547-24.069-2.737-83.497-11.341-92.101zM259.78 666.177l-8.398-8.047 7.702-23.764s0.697-0.697 1.833-1.775c-12.482 2.33-32.542 7.194-40.269 14.919-8.603 8.604-10.794 68.032-11.342 92.101h28.22l1.768-30.773 1.008 30.773h23.282l-10.39-59.097 6.586-14.337z" fill="#8198C8" p-id="1529"></path><path d="M277.592 622.391c0.194-0.656 0.365-1.211 0.5-1.639a53.338 53.338 0 0 0-0.5 1.639z" fill="#FFCFBA" p-id="1530"></path><path d="M291.395 634.366l9.448 17.29 9.197-17.29s8.152-4.2 11.903-10.548v-13.281c-3.751 6.868-10.659 10.665-23.246 10.665-12.04 0-17.388-3.536-22.701-9.96v8.842c2.813-0.119 1.359-0.25 1.626-0.344 0.731 8.41 13.773 14.626 13.773 14.626z" fill="#FFCFBA" p-id="1531"></path><path d="M298.697 621.202c12.587 0 19.495-3.797 23.246-10.665v-1.263c-5.001 5.935-10.727 9.188-22.385 9.188-12.595 0-16.374-3.87-23.563-10.871v3.652c5.313 6.422 10.662 9.959 22.702 9.959z" fill="#F4B4A7" p-id="1532"></path><path d="M237.525 739.61h2.777l-1.009-30.773zM360.326 739.61h2.779l-1.77-30.773z" fill="#78829A" p-id="1533"></path><path d="M327.109 640.29l-7.744 13.638s-1.462-17.368-8.958-19.562l-9.563 17.29-9.449-17.29c-7.495 2.193-8.958 19.562-8.958 19.562l-7.826-13.785c-0.472 6.365-0.539 13.779-0.218 22.456 0.33 8.837 7.505 42.629 15.334 77.012h23.479c7.042-34.383 13.511-68.175 13.838-77.012 0.32-8.661 0.385-16.01 0.065-22.309z" fill="#FFFFFF" p-id="1534"></path><path d="M274.61 640.143l-0.581-1.024c0.509-5.865 2.439-12.961 3.563-16.728 0.159-0.554 0.327-1.102 0.5-1.639 0.201-0.642 0.325-1.012 0.325-1.012-0.268 0.094-0.553 0.225-0.833 0.344-5.537 2.342-13.201 9.227-16.667 12.507a103.392 103.392 0 0 0-1.833 1.775l-7.702 23.765 8.398 8.046-6.585 14.337 10.39 59.097h26.142c-7.829-34.383-15.004-68.175-15.334-77.012-0.321-8.677-0.255-16.091 0.217-22.456z" fill="#848FC1" p-id="1535"></path><path d="M323.707 620.003c0.032 0.097 0.061 0.195 0.093 0.291 0.009-0.08 0.033-0.155 0.042-0.236-0.045-0.017-0.093-0.04-0.135-0.055z" fill="#3B433F" p-id="1536"></path><path d="M341.656 666.177l8.397-8.047-7.702-23.764s-0.686-0.713-1.817-1.82c-3.466-3.381-11.174-10.483-16.69-12.485 0.032 0.107 3.203 10.691 3.929 19.058l-0.665 1.172c0.321 6.3 0.255 13.648-0.065 22.309-0.328 8.837-6.796 42.629-13.838 77.012h24.645l10.392-59.096-6.586-14.339z" fill="#848FC1" p-id="1537"></path><path d="M278.416 619.74s-0.124 0.371-0.325 1.012c-0.134 0.428-0.305 0.982-0.5 1.639-1.124 3.767-3.054 10.862-3.563 16.728l0.581 1.024 7.827 13.785s1.463-17.368 8.958-19.562c0.001 0-12.247-6.216-12.978-14.626zM310.406 634.366c7.496 2.193 8.958 19.562 8.958 19.562l7.744-13.638 0.665-1.172c-0.727-8.367-3.909-18.95-3.94-19.058 0-0.002-0.016-0.011-0.016-0.011v0.008c0 0.081-0.021 0.156-0.03 0.236-0.141 1.236-0.541 2.41-1.117 3.523-3.278 6.35-12.264 10.55-12.264 10.55z" fill="#BFBFBF" p-id="1538"></path><path d="M300.719 618.462c11.657 0 17.385-3.253 21.957-9.188 3.172-4.118 5.788-9.526 9.44-16.042 2.426-4.324 4.291-9.229 5.708-14.29 1.031 0.255 2.158-0.008 3.353-1.063 3.727-3.29 7.792-19.196 5.048-22.485-0.924-1.116-1.914-1.347-2.815-1.17-0.17 1.308-0.374 2.629-0.6 3.961-0.077 0.451-0.169 0.911-0.253 1.368-0.161 0.88-0.327 1.764-0.513 2.651-0.039 0.192-0.068 0.377-0.109 0.566-0.003-0.011-0.006 0.242-0.009 0.232-0.444 2.087-0.938 5.319-1.504 6.57h-1.151c0.666-5.626 1.122-15.132-0.441-22.42-2.708-12.614-11.895-23.438-18.84-22.343-6.85 1.084-12.28 4.232-19.276 4.314-6.997-0.082-12.427-3.328-19.28-4.415-6.943-1.094-16.13 9.845-18.837 22.46-1.564 7.289-1.107 16.777-0.443 22.403h-1.15c-0.815-2.813-1.491-6.316-2.049-9.287-0.001 0.007-0.002-0.119-0.003-0.113-0.053-0.274-0.096-0.614-0.146-0.892-0.108-0.604-0.221-1.242-0.319-1.844a92.936 92.936 0 0 1-0.472-3.2c-0.901-0.175-1.89 0.049-2.815 1.166-2.744 3.287 1.322 19.188 5.047 22.479 1.196 1.057 2.327 1.318 3.355 1.062 1.421 5.063 3.287 9.966 5.714 14.292 3.175 5.662 5.591 10.485 8.268 14.355 4.842 7.003 10.541 10.873 23.135 10.873z" fill="#FFCFBA" p-id="1539"></path><path d="M258.805 559.217c0.048 0.268 0.099 0.799 0.149 1.068 0.558 2.971 1.234 6.474 2.05 9.287h1.149c-0.664-5.626-1.122-15.132 0.443-22.42 2.707-12.614 11.894-23.438 18.837-22.342 6.853 1.083 12.283 4.231 19.28 4.313 6.996-0.082 12.426-3.328 19.276-4.415 6.945-1.094 16.132 9.845 18.84 22.46 1.563 7.29 1.106 16.778 0.441 22.403h1.151c0.566-1.25 1.06-4.483 1.504-6.569 0.039-0.179 0.081-0.489 0.118-0.67 0.186-0.886 0.352-1.836 0.513-2.717 0.084-0.456 0.176-0.946 0.253-1.399 0.226-1.333 0.429-2.669 0.6-3.98 1.613-12.421 0.661-23.803-3.558-32.838-6.612-14.165-25.451-20.213-39.138-20.293-13.691 0.08-32.529 6.123-39.141 20.286-4.219 9.037-5.17 20.41-3.558 32.832 0.136 1.054 0.298 2.115 0.472 3.182 0.099 0.6 0.211 1.204 0.319 1.812z" fill="#323232" p-id="1540"></path><path d="M353.569 533.684c0 14.438-0.15 38.789-51.645 38.789-51.502 0-51.641-24.352-51.641-38.789 0-14.426 23.135-17.7 51.641-17.7 28.52-0.001 51.645 3.274 51.645 17.7z" fill="#686F79" p-id="1541"></path><path d="M301.924 570.78c-49.625 0-51.561-22.598-51.641-37.16v0.064c0 14.438 0.138 38.789 51.641 38.789 51.495 0 51.645-24.352 51.645-38.789v-0.064c-0.089 14.562-2.026 37.16-51.645 37.16z" fill="#686F79" p-id="1542"></path><path d="M376.191 500.806c0 14.663-33.417 26.557-74.631 26.557-41.188 0-74.597-11.894-74.597-26.557 0-14.668 45.241-43.418 74.597-43.418 29.379-0.001 74.631 28.749 74.631 43.418z" fill="#AAB1BD" p-id="1543"></path><path d="M301.559 465.784c20.468 0 51.032 17.483 56.177 28.667 0.495-1.029 0.761-2.081 0.761-3.154 0-10.697-34.525-31.663-56.938-31.663-22.391 0-56.904 20.965-56.904 31.663 0 1.073 0.266 2.125 0.75 3.154 5.146-11.184 35.699-28.667 56.154-28.667z" fill="#AAB1BD" p-id="1544"></path><path d="M340.333 468.351c12.446 7.399 21.918 16.398 21.918 22.454 0 11.923-27.166 21.593-60.692 21.593-33.505 0-60.659-9.669-60.659-21.593 0-6.056 9.464-15.055 21.919-22.454-19.458 9.692-35.856 23.628-35.856 32.455 0 14.663 33.409 26.557 74.597 26.557 41.214 0 74.633-11.894 74.633-26.557-0.002-8.827-16.4-22.764-35.86-32.455z" fill="#686F79" p-id="1545"></path><path d="M357.283 518.082v-0.03c-0.01-0.024-0.019-0.053-0.029-0.078 0-0.009-0.021-0.02-0.021-0.02-1.876-4.475-25.91-8.017-55.308-8.017-29.385 0-53.438 3.542-55.305 8.017 0 0-0.008 0.011-0.008 0.02-0.012 0.025-0.031 0.054-0.04 0.078 0 0.007-0.009 0.021-0.009 0.03-1.294 2.866-1.333 13.202-0.07 15.926 0.009 0.028 0.051 0.053 0.07 0.086 1.362 4.543 25.634 8.16 55.363 8.16 29.735 0 53.994-3.617 55.369-8.16 0.019-0.033 0.051-0.058 0.061-0.086 1.26-2.725 1.239-13.06-0.073-15.926z" fill="#444B54" p-id="1546"></path><path d="M358.28 526.321c-0.021-0.682-0.038-1.353-0.081-2.011h0.011c-0.011-0.12-0.03-0.228-0.04-0.353 0-0.088-0.009-0.183-0.019-0.275v0.005a31.998 31.998 0 0 0-0.188-1.895c-3.341 0.798-7.537 1.57-12.506 2.24-0.08-1.574-1.374-2.833-2.962-2.833a2.977 2.977 0 0 0-2.976 2.972v0.577c-10.096 1.089-22.728 1.803-37.596 1.803-14.864 0-27.488-0.715-37.582-1.803v-0.577a2.984 2.984 0 0 0-2.984-2.972 2.969 2.969 0 0 0-2.963 2.833c-4.979-0.67-9.166-1.442-12.514-2.24-0.07 0.587-0.139 1.228-0.188 1.895v-0.005c-0.011 0.093-0.011 0.188-0.021 0.275-0.009 0.125-0.022 0.232-0.022 0.353-0.038 0.657-0.057 1.329-0.077 2.011 3.625 1.249 7.952 2.43 12.821 3.481a2.963 2.963 0 0 0 5.672 1.117c11.101 1.999 24.278 3.308 37.858 3.308 13.576 0 26.764-1.309 37.863-3.308a2.968 2.968 0 0 0 2.709 1.767c1.618 0 2.903-1.285 2.972-2.884 4.862-1.051 9.199-2.232 12.813-3.481z m-12.811 0.903v-0.639c2.369-0.319 4.622-0.666 6.714-1.032-2.05 0.575-4.294 1.134-6.714 1.671z m-87.084-0.638v0.639a131.457 131.457 0 0 1-6.728-1.671c2.115 0.366 4.357 0.713 6.728 1.032z m5.957 1.843v-1.141c11.308 1.192 24.553 1.799 37.582 1.799 13.02 0 26.278-0.606 37.597-1.799v1.141c-10.379 1.902-23.171 3.275-37.597 3.275-14.419 0-27.211-1.373-37.582-3.275z" fill="#444B54" p-id="1547"></path><path d="M246.561 522.296c0-0.012 0.01-0.022 0.01-0.023 0.009-0.025 0.028-0.06 0.04-0.087 0-0.002 0.008-0.009 0.008-0.018 1.867-4.475 25.92-8.01 55.305-8.01 29.398 0 53.432 3.535 55.309 8.01 0 0.009 0.021 0.016 0.021 0.018 0.01 0.025 0.019 0.062 0.029 0.087v0.023c0.533 1.148 0.84 3.527 0.958 6.119 0.178-3.924-0.148-8.563-0.958-10.333v-0.03c-0.01-0.024-0.019-0.053-0.029-0.078 0-0.009-0.021-0.02-0.021-0.02-1.876-4.475-25.91-8.017-55.309-8.017-29.384 0-53.438 3.542-55.305 8.017 0 0-0.008 0.011-0.008 0.02-0.012 0.025-0.031 0.054-0.04 0.078 0 0.007-0.01 0.021-0.01 0.03-0.8 1.77-1.116 6.409-0.948 10.333 0.107-2.593 0.434-4.971 0.948-6.119z" fill="#444B54" p-id="1548"></path><path d="M357.354 529.794c-0.01 0.023-0.043 0.054-0.061 0.081-1.375 4.546-25.634 8.169-55.369 8.169-29.729 0-54-3.623-55.363-8.169-0.019-0.027-0.061-0.058-0.07-0.081-0.484-1.038-0.78-3.182-0.878-5.588-0.159 3.84 0.128 8.17 0.878 9.802 0.009 0.028 0.051 0.053 0.07 0.086 1.363 4.543 25.634 8.16 55.363 8.16 29.735 0 53.994-3.618 55.369-8.16 0.019-0.034 0.051-0.058 0.061-0.086 0.748-1.632 1.055-5.962 0.888-9.802-0.11 2.406-0.408 4.55-0.888 5.588z" fill="#444B54" p-id="1549"></path><path d="M358.28 525.48a38.534 38.534 0 0 0-0.127-2.642c-11.053 3.906-31.217 8.017-56.228 8.017-25.011 0-45.17-4.11-56.232-8.017-0.06 0.849-0.1 1.738-0.119 2.642 12.634 4.352 33.96 7.902 56.351 7.902 22.384 0.001 43.731-3.55 56.355-7.902z" fill="#F5BF33" p-id="1550"></path><path d="M358.21 523.466a40.658 40.658 0 0 0-0.246-2.519c-10.65 2.552-29.88 4.767-56.04 4.767-26.155 0-45.405-2.215-56.044-4.767-0.089 0.775-0.188 1.623-0.23 2.519 13.011 3.151 34.961 4.776 56.274 4.776 21.311 0 43.269-1.625 56.286-4.776z" fill="#F5BF33" p-id="1551"></path><path d="M264.342 528.869a2.983 2.983 0 0 1-2.985 2.973 2.966 2.966 0 0 1-2.972-2.973v-5.54a2.97 2.97 0 0 1 2.972-2.971c1.641 0 2.985 1.335 2.985 2.971v5.54zM339.521 528.869a2.974 2.974 0 0 0 2.976 2.973 2.972 2.972 0 0 0 2.973-2.973v-5.54a2.976 2.976 0 0 0-2.973-2.971 2.979 2.979 0 0 0-2.976 2.971v5.54z" fill="#F5BF33" p-id="1552"></path><path d="M321.267 487.426c0 10.875-8.819 19.691-19.708 19.691-10.865 0-19.684-8.816-19.684-19.691 0-10.875 8.819-19.697 19.684-19.697 10.889 0 19.708 8.822 19.708 19.697z" fill="#444B54" p-id="1553"></path><path d="M301.931 481.298l1.99 4.033 4.45 0.647-3.219 3.139 0.759 4.431-3.98-2.092-3.981 2.092 0.761-4.431-3.22-3.139 4.45-0.647z" fill="#F5BF33" p-id="1554"></path></svg>