<?xml version="1.0" standalone="no"?><!DOCTYPE svg PUBLIC "-//W3C//DTD SVG 1.1//EN" "http://www.w3.org/Graphics/SVG/1.1/DTD/svg11.dtd"><svg t="1523356459886" class="icon" style="" viewBox="0 0 1024 1024" version="1.1" xmlns="http://www.w3.org/2000/svg" p-id="3644" xmlns:xlink="http://www.w3.org/1999/xlink" width="32" height="32"><defs><style type="text/css"></style></defs><path d="M156.92664587251357 459.9225752285235c0 198.8410785185185 336.1361091090963 506.57131945276046 350.3390425492544 520.7742528929184 4.734311578232098 4.734311578232098 9.468623156464195 7.101466720079011 16.57008987654321 7.101466720079011s11.83577829831111-2.3671551418469137 16.57008987654321-7.101466720079011c14.202934734696296-14.202934734696296 350.3390425492544-321.9331743743999 350.33904384379264-520.7742528929184 0-73.38182622625185-21.304401454775306-142.02934216880988-61.54604922247901-203.57539009675062-7.101466720079011-11.83577829831111-21.304401454775306-14.202934734696296-33.14017975308642-7.101468014617283-11.83577829831111 7.101466720079011-14.202934734696296 21.304401454775306-7.101466720079011 33.14017975308642 35.50733489493334 52.07742477147655 54.44458120786173 113.62347399395556 54.44458120786173 177.53667835828145 0 153.865120467121-253.28565972638023 407.15078019350125-319.5660192325531 471.06398326328883C457.55541879213825 864.7061989856395 204.26975906575802 613.787694401106 204.26975906575802 459.9225752285235c0-175.16952192189632 144.39649731065677-319.5660192325531 319.5660192325531-319.5660192325531 73.38182622625185 0 144.39649731065677 26.038713033007408 201.2082349549037 71.01467108440494 9.468623156464195 9.468623156464195 26.038713033007408 7.101466720079011 33.14017975308642-2.3671564363851854 7.101466720079011-9.468623156464195 7.101466720079011-26.038713033007408-2.3671564363851854-33.14017975308642-66.28035950617284-52.07742477147655-146.76365374704199-82.85044938271605-231.98125827160493-82.85044938271605C322.6275446379457 93.01344150818761 156.92664587251357 256.3471851317729 156.92664587251357 459.9225752285235z" fill="#999999" p-id="3645"></path><path d="M374.70496940942223 478.8598202469136c0 82.85044938271605 66.28035950617284 149.1308088888889 149.1308088888889 149.1308088888889s149.1308088888889-66.28035950617284 149.1308088888889-149.1308088888889-66.28035950617284-149.1308088888889-149.1308088888889-149.1308088888889-149.1308088888889 66.28035950617284-149.1308088888889 149.1308088888889z m250.9185045845333 0c0 56.81173634970864-44.97595805139753 101.78769440110615-101.78769569564446 101.78769440110615s-101.78769440110615-44.97595805139753-101.78769440110615-101.78769440110615 44.97595805139753-101.78769440110615 101.78769440110615-101.78769440110615 101.78769440110615 44.97595805139753 101.78769569564446 101.78769440110615z" fill="#999999" p-id="3646"></path></svg>